<?xml version="1.0" encoding="utf-8"?>
<!-- Generator: Adobe Illustrator 25.0.0, SVG Export Plug-In . SVG Version: 6.00 Build 0)  -->
<svg version="1.1" id="Capa_1" xmlns="http://www.w3.org/2000/svg" xmlns:xlink="http://www.w3.org/1999/xlink" x="0px" y="0px"
	 viewBox="0 0 341.09 295" style="enable-background:new 0 0 341.09 295;" xml:space="preserve">
<style type="text/css">
	.st0{fill:#1C2E8D;}
</style>
<path class="st0" d="M248.12,86.02c-6.25,0-12.47,1-18.41,2.92c-7.21-34.22-38.16-59.62-75-59.62s-67.79,25.4-75,59.62
	c-5.94-1.93-12.16-2.92-18.41-2.92C27.5,86.02,0,114.44,0,149.37s27.5,63.35,61.3,63.35c2.97,0,5.93-0.23,8.88-0.68v45.43
	c0,4.53,3.67,8.2,8.19,8.2h36.13c4.53,0,8.2-3.67,8.2-8.2c0-4.53-3.67-8.2-8.2-8.2H86.57v-47.71c0-2.65-1.29-5.15-3.46-6.69
	c-2.18-1.54-4.96-1.92-7.46-1.04c-4.7,1.66-9.53,2.5-14.35,2.5c-24.76,0-44.91-21.06-44.91-46.96s20.15-46.96,44.91-46.96
	c7.35,0,14.65,1.91,21.11,5.51c2.48,1.38,5.48,1.39,7.97,0.02c2.48-1.37,4.07-3.92,4.22-6.75c1.61-31.11,28.02-55.48,60.12-55.48
	s58.51,24.37,60.12,55.48c0.15,2.83,1.74,5.38,4.22,6.75s5.49,1.36,7.97-0.02c6.46-3.6,13.76-5.51,21.11-5.51
	c24.76,0,44.91,21.06,44.91,46.96c0,25.89-20.15,46.96-44.91,46.96c-4.82,0-9.65-0.84-14.35-2.5c-2.51-0.88-5.29-0.5-7.46,1.04
	c-2.17,1.53-3.46,4.03-3.46,6.69v47.71h-65.72l-12.67-8.2c-33.89-21.91-33.89-36.36-33.89-41.11c0-10.42,8.48-18.9,18.9-18.9
	c7.85,0,14.76,4.72,17.61,12.01c1.23,3.14,4.26,5.21,7.64,5.21c3.37,0,6.4-2.07,7.64-5.21c2.85-7.3,9.76-12.01,17.61-12.01
	c10.42,0,18.9,8.48,18.9,18.9c0,4.27,0,13.16-15.57,27.31c-3.35,3.04-3.6,8.23-0.55,11.58c3.04,3.35,8.23,3.61,11.58,0.56
	c20.94-19.02,20.94-33.33,20.94-39.44c0-19.46-15.84-35.29-35.29-35.29c-9.77,0-18.76,3.92-25.24,10.57
	c-6.49-6.65-15.47-10.57-25.24-10.57c-19.46,0-35.29,15.84-35.29,35.29c0,12.08,4.29,30.91,41.38,54.88l14.71,9.51
	c1.33,0.85,2.87,1.31,4.45,1.31h76.34c4.53,0,8.19-3.67,8.19-8.2v-45.43c2.95,0.45,5.91,0.68,8.88,0.68
	c33.8,0,61.3-28.42,61.3-63.35C309.42,114.44,281.92,86.02,248.12,86.02z"/>
</svg>
